<svg height="512" viewBox="0 0 512 512" width="512" xmlns="http://www.w3.org/2000/svg"><g id="Pizza"><g id="Filled"><path d="m8 156v12.15a23.992 23.992 0 0 0 18.56 23.37l445.44 103.64v-39.16z" fill="#d4b981"/><path d="m8 156 42.638 9.69a48 48 0 0 1 37.362 46.81v115.5a16 16 0 0 0 32 0v-48a16 16 0 0 1 32 0v120a16 16 0 0 0 32 0v-143.867a48 48 0 0 1 58.638-46.806l205.362 46.673v-208z" fill="#ffdb54"/><path d="m160 208a336.937 336.937 0 0 1 -73.691-8.125 47.951 47.951 0 0 1 1.691 12.625v115.5a16 16 0 0 0 32 0v-48a16 16 0 0 1 32 0v120a16 16 0 0 0 32 0v-143.867a48 48 0 0 1 58.638-46.806l205.362 46.673v-208l-2.068.508c-59.21 95.713-165.115 159.492-285.932 159.492z" fill="#ffcc21"/><g fill="#5fc4b8"><circle cx="144" cy="184" r="24"/><circle cx="240" cy="152" r="24"/><circle cx="304" cy="88" r="24"/><circle cx="392" cy="144" r="24"/><circle cx="336" cy="208" r="24"/></g><path d="m504 268v-232a28 28 0 0 0 -56 0v232z" fill="#decba0"/><circle cx="476" cy="268" fill="#d4b981" r="28"/><circle cx="136" cy="176" fill="#97e5de" r="8"/><circle cx="232" cy="144" fill="#97e5de" r="8"/><circle cx="296" cy="80" fill="#97e5de" r="8"/><circle cx="328" cy="200" fill="#97e5de" r="8"/><circle cx="384" cy="136" fill="#97e5de" r="8"/><circle cx="476" cy="84" fill="#e9dcc0" r="12"/><circle cx="476" cy="148" fill="#e9dcc0" r="12"/><path d="m360 208a23.944 23.944 0 0 0 -8.513-18.329 31.979 31.979 0 0 1 -38.37 25.577 24.012 24.012 0 0 0 21.268 16.692c.536.027 1.072.06 1.615.06.415 0 .826-.016 1.237-.031a24 24 0 0 0 22.763-23.969z" fill="#50b5a6"/><path d="m407.937 126.061c.039.642.063 1.288.063 1.939a32.036 32.036 0 0 1 -32 32c-.651 0-1.3-.024-1.939-.063a24 24 0 1 0 33.876-33.876z" fill="#50b5a6"/><path d="m319.937 70.061c.039.642.063 1.288.063 1.939a32.036 32.036 0 0 1 -32 32c-.651 0-1.3-.024-1.939-.063a24 24 0 1 0 33.876-33.876z" fill="#50b5a6"/><path d="m255.937 134.061c.039.642.063 1.288.063 1.939a32.036 32.036 0 0 1 -32 32c-.651 0-1.3-.024-1.939-.063a24 24 0 1 0 33.876-33.876z" fill="#50b5a6"/><path d="m159.937 166.061c.039.642.063 1.288.063 1.939a32.036 32.036 0 0 1 -32 32c-.651 0-1.3-.024-1.939-.063a24 24 0 1 0 33.876-33.876z" fill="#50b5a6"/></g><g id="Outline"><path d="m144 216a32 32 0 1 0 -32-32 32.036 32.036 0 0 0 32 32zm0-48a16 16 0 1 1 -16 16 16.019 16.019 0 0 1 16-16z"/><path d="m208 152a32 32 0 1 0 32-32 32.036 32.036 0 0 0 -32 32zm48 0a16 16 0 1 1 -16-16 16.019 16.019 0 0 1 16 16z"/><path d="m304 120a32 32 0 1 0 -32-32 32.036 32.036 0 0 0 32 32zm0-48a16 16 0 1 1 -16 16 16.019 16.019 0 0 1 16-16z"/><path d="m392 176a32 32 0 1 0 -32-32 32.036 32.036 0 0 0 32 32zm0-48a16 16 0 1 1 -16 16 16.019 16.019 0 0 1 16-16z"/><path d="m336 176a32 32 0 1 0 32 32 32.036 32.036 0 0 0 -32-32zm0 48a16 16 0 1 1 16-16 16.019 16.019 0 0 1 -16 16z"/><circle cx="184" cy="504" r="8"/><circle cx="328" cy="152" r="8"/><circle cx="416" cy="200" r="8"/><circle cx="408" cy="88" r="8"/><circle cx="504" cy="56" r="8"/><circle cx="368" cy="96" r="8"/><circle cx="296" cy="168" r="8"/><circle cx="184" cy="144" r="8"/><circle cx="120" cy="232" r="8"/><circle cx="104" cy="136" r="8"/><path d="m152 456a8 8 0 0 0 -8 8v24a8 8 0 0 0 16 0v-24a8 8 0 0 0 -8-8z"/><path d="m184 432a8 8 0 0 0 -8 8v32a8 8 0 0 0 16 0v-32a8 8 0 0 0 -8-8z"/><path d="m361.652 77.609 78.348-19.409v187.777l-52.557-11.948a8 8 0 0 0 -9.675 6.552 8.179 8.179 0 0 0 6.394 9.11l56.261 12.791a36 36 0 0 0 1.636 17.5l-208.249-48.452a8 8 0 0 0 -3.62 15.58l231.263 53.809a35.821 35.821 0 0 0 16.274 3.04c19.316-.915 34.273-17.342 34.273-36.679v-179.006a8.182 8.182 0 0 0 -7.467-8.257 8 8 0 0 0 -8.533 7.983v150.083a35.871 35.871 0 0 0 -40 .02v-201.597c0-11.166 9.136-20.667 20.3-20.5a19.917 19.917 0 0 1 17.594 11.044 8 8 0 1 0 14.3-7.174 35.839 35.839 0 0 0 -32.955-19.868c-19.701.404-35.239 16.992-35.239 36.702v5.016l-82.129 20.788a7.781 7.781 0 0 0 -5.871 7.543 7.78 7.78 0 0 0 9.652 7.552zm114.348 210.391a20 20 0 1 1 20-20 20.023 20.023 0 0 1 -20 20z"/><path d="m135.086 132.81a8 8 0 0 1 -1.9-15.772l113.627-27.888a8 8 0 0 1 3.814 15.539s-114.91 28.121-115.541 28.121z"/><path d="m281.8 210.029-37.391-8.5a55.918 55.918 0 0 0 -68.409 54.601v143.87a8 8 0 0 1 -16 0v-120a24 24 0 0 0 -48 0v48a8 8 0 0 1 -16 0v-115.5a55.721 55.721 0 0 0 -43.588-54.611l-9.629-2.189 31.09-7.631a8 8 0 0 0 -3.814-15.539l-63.966 15.7a8 8 0 0 0 -6.093 7.74v.03 12.15a31.863 31.863 0 0 0 24.746 31.162s30.66 7.06 31.261 7.06a8 8 0 0 0 1.806-15.794l-29.44-6.849a15.931 15.931 0 0 1 -12.373-15.579v-2.128l32.865 7.469a39.8 39.8 0 0 1 31.135 39.009v115.5a24 24 0 1 0 48 0v-48a8 8 0 1 1 16 0v120a24 24 0 1 0 48 0v-143.87a40 40 0 0 1 39.9-40.015 40.537 40.537 0 0 1 8.97 1.016l37.391 8.5a8 8 0 0 0 3.547-15.6z"/></g></g></svg>